<svg viewBox="0 0 16 20" fill="#9EADBA" xmlns="http://www.w3.org/2000/svg">
  <path d="M9.172 0H2C0.9 0 0 0.9 0 2V18C0 19.1 0.9 20 2 20H14C15.1 20 16 19.1 16 18V6.828C16 6.298 15.789 5.789 15.414 5.414L10.586 0.586C10.211 0.211 9.702 0 9.172 0ZM11.923 15.698C11.682 16.266 11.201 16.509 10.64 16.347C10.159 16.185 9.597 15.779 9.036 15.131C8.475 15.212 7.913 15.374 7.352 15.536C6.71 16.671 6.069 17.644 5.427 17.887C5.266 17.968 5.106 18 4.945 18C4.624 18 4.384 17.887 4.223 17.644C4.063 17.401 3.742 16.914 4.383 16.185C4.784 15.698 5.746 15.212 6.789 14.888C7.11 14.239 7.35 13.591 7.591 12.861C7.03 11.807 6.709 10.672 6.789 10.023C6.87 9.373 7.282 9 7.832 9C8.382 9 8.714 9.373 8.875 9.941C9.035 10.59 8.875 11.644 8.474 12.86C8.715 13.347 9.035 13.833 9.356 14.319C10.318 14.238 11.12 14.238 11.602 14.562C12.003 14.806 12.083 15.211 11.923 15.698ZM9 7V1.5L14.5 7H9Z" fill="#9EADBA" fill-opacity="1"/>
</svg>
