<svg viewBox="0 0 20 20" fill="#9EADBA" xmlns="http://www.w3.org/2000/svg">
  <g clip-path="url(#clip0_2_3876)">
    <path d="M18.75 3.75H15V1.25C15 0.918479 14.8683 0.600537 14.6339 0.366117C14.3995 0.131696 14.0815 0 13.75 0L6.25 0C5.91848 0 5.60054 0.131696 5.36612 0.366117C5.1317 0.600537 5 0.918479 5 1.25V3.75H1.25C0.918479 3.75 0.600537 3.8817 0.366117 4.11612C0.131696 4.35054 0 4.66848 0 5C0 5.33152 0.131696 5.64946 0.366117 5.88388C0.600537 6.1183 0.918479 6.25 1.25 6.25H18.75C19.0815 6.25 19.3995 6.1183 19.6339 5.88388C19.8683 5.64946 20 5.33152 20 5C20 4.66848 19.8683 4.35054 19.6339 4.11612C19.3995 3.8817 19.0815 3.75 18.75 3.75ZM7.5 3.75V2.5H12.5V3.75H7.5Z"/>
    <path d="M2.56836 8.75L3.13086 18.875C3.16195 19.1844 3.30725 19.4711 3.53839 19.6791C3.76953 19.8872 4.0699 20.0016 4.38086 20H15.6309C15.9407 20 16.2396 19.8849 16.4694 19.677C16.6992 19.4692 16.8436 19.1833 16.8746 18.875L17.4371 8.75H2.56836Z"/>
  </g>
  <defs>
    <clipPath id="clip0_2_3876">
      <rect width="20" height="20" fill="white"/>
    </clipPath>
  </defs>
</svg>
