<svg width="20" height="20" viewBox="0 0 20 20" fill="none" xmlns="http://www.w3.org/2000/svg">
  <path d="M19.5833 2.91667H10V17.0833H19.5833V2.91667Z" fill="white"/>
  <path d="M19.5835 17.5H11.2502C11.0199 17.5 10.8335 17.3136 10.8335 17.0833C10.8335 16.853 11.0199 16.6667 11.2502 16.6667H19.1668V3.33333H11.2502C11.0199 3.33333 10.8335 3.14697 10.8335 2.91667C10.8335 2.68636 11.0199 2.5 11.2502 2.5H19.5835C19.8138 2.5 20.0002 2.68636 20.0002 2.91667V17.0833C20.0002 17.3136 19.8138 17.5 19.5835 17.5Z" fill="#9EADBA"/>
  <path d="M11.6667 0L0 2.17391V17.8261L11.6667 20V0Z" fill="#9EADBA"/>
  <path opacity="0.2" d="M0 2.17392V2.38225L11.6667 0.208333V0L0 2.17392Z" fill="white"/>
  <path d="M14.1668 4.16667H10.8335V5.83334H14.1668V4.16667Z" fill="#9EADBA"/>
  <path d="M18.3333 4.16667H15V5.83334H18.3333V4.16667Z" fill="#9EADBA"/>
  <path d="M14.1668 6.66667H10.8335V8.33334H14.1668V6.66667Z" fill="#9EADBA"/>
  <path d="M18.3333 6.66667H15V8.33334H18.3333V6.66667Z" fill="#9EADBA"/>
  <path d="M14.1668 9.16667H10.8335V10.8333H14.1668V9.16667Z" fill="#9EADBA"/>
  <path d="M18.3333 9.16667H15V10.8333H18.3333V9.16667Z" fill="#9EADBA"/>
  <path d="M14.1668 11.6667H10.8335V13.3333H14.1668V11.6667Z" fill="#9EADBA"/>
  <path d="M18.3333 11.6667H15V13.3333H18.3333V11.6667Z" fill="#9EADBA"/>
  <path d="M14.1668 14.1667H10.8335V15.8333H14.1668V14.1667Z" fill="#9EADBA"/>
  <path d="M18.3333 14.1667H15V15.8333H18.3333V14.1667Z" fill="#9EADBA"/>
  <path opacity="0.1" d="M0 17.826L11.6667 19.9999V19.7916L0 17.6177V17.826Z" fill="black"/>
  <path d="M6.13148 10.4167L8.04615 6.97029L8.02199 6.95686L6.56646 7.06083L5.41676 9.13027L4.3548 7.21881L2.97998 7.31697L4.70204 10.4167L2.97998 13.5165L4.3548 13.6147L5.41676 11.7032L6.56646 13.7727L8.02199 13.8766L8.04615 13.8632L6.13148 10.4167Z" fill="white"/>
  <path opacity="0.05" d="M11.6667 0L0 2.17391V17.8261L11.6667 20V0Z" fill="url(#paint0_linear_2_1600)"/>
  <path d="M19.5833 2.5H11.6667V0L0 2.17392V17.8261L11.6667 20V17.5H19.5833C19.8136 17.5 20 17.3136 20 17.0833V2.91667C20 2.68636 19.8136 2.5 19.5833 2.5Z" fill="url(#paint1_linear_2_1600)"/>
  <defs>
    <linearGradient id="paint0_linear_2_1600" x1="-0.000679604" y1="9.99955" x2="11.6667" y2="9.99955" gradientUnits="userSpaceOnUse">
      <stop stop-color="white"/>
      <stop offset="1"/>
    </linearGradient>
    <linearGradient id="paint1_linear_2_1600" x1="-1.30288" y1="4.96794" x2="20.8712" y2="15.3079" gradientUnits="userSpaceOnUse">
      <stop stop-color="white" stop-opacity="0.2"/>
      <stop offset="1" stop-color="white" stop-opacity="0"/>
    </linearGradient>
  </defs>
</svg>
